<svg width="1200" height="750" viewBox="0 0 1200 750" fill="none" xmlns="http://www.w3.org/2000/svg">
  <rect width="1200" height="750" rx="36" fill="#050816"/>
  <rect x="90" y="110" width="1020" height="530" rx="28" fill="url(#bg)"/>
  <rect x="150" y="180" width="320" height="310" rx="28" fill="#0B1122" stroke="#22D3EE" stroke-opacity="0.28"/>
  <path d="M198 422H358" stroke="#F8FAFC" stroke-width="16" stroke-linecap="round"/>
  <path d="M210 360L258 280L306 360" stroke="#38BDF8" stroke-width="18" stroke-linecap="round" stroke-linejoin="round"/>
  <rect x="520" y="180" width="500" height="170" rx="24" fill="#0B1122" stroke="#38BDF8" stroke-opacity="0.2"/>
  <rect x="560" y="224" width="220" height="18" rx="9" fill="#F8FAFC" fill-opacity="0.9"/>
  <rect x="560" y="258" width="170" height="12" rx="6" fill="#94A3B8"/>
  <rect x="560" y="284" width="140" height="12" rx="6" fill="#94A3B8"/>
  <rect x="520" y="388" width="500" height="180" rx="24" fill="#0B1122" stroke="#38BDF8" stroke-opacity="0.2"/>
  <rect x="562" y="430" width="138" height="16" rx="8" fill="#38BDF8" fill-opacity="0.8"/>
  <rect x="562" y="462" width="220" height="12" rx="6" fill="#E2E8F0" fill-opacity="0.7"/>
  <rect x="562" y="488" width="182" height="12" rx="6" fill="#E2E8F0" fill-opacity="0.5"/>
  <circle cx="900" cy="478" r="82" fill="#2563EB" fill-opacity="0.22"/>
  <path d="M900 430V526" stroke="#22D3EE" stroke-width="16" stroke-linecap="round"/>
  <path d="M852 478H948" stroke="#22D3EE" stroke-width="16" stroke-linecap="round"/>
  <defs>
    <linearGradient id="bg" x1="90" y1="110" x2="1110" y2="640" gradientUnits="userSpaceOnUse">
      <stop stop-color="#111827"/>
      <stop offset="1" stop-color="#020617"/>
    </linearGradient>
  </defs>
</svg>
