<svg width="1200" height="750" viewBox="0 0 1200 750" fill="none" xmlns="http://www.w3.org/2000/svg">
  <rect width="1200" height="750" rx="36" fill="#060816"/>
  <rect x="90" y="110" width="1020" height="530" rx="28" fill="url(#bg)"/>
  <rect x="140" y="160" width="420" height="400" rx="26" fill="#0F172A" stroke="#38BDF8" stroke-opacity="0.24"/>
  <rect x="176" y="210" width="190" height="18" rx="9" fill="#38BDF8" fill-opacity="0.8"/>
  <rect x="176" y="252" width="260" height="14" rx="7" fill="#E2E8F0" fill-opacity="0.75"/>
  <rect x="176" y="284" width="220" height="14" rx="7" fill="#E2E8F0" fill-opacity="0.5"/>
  <rect x="176" y="340" width="214" height="92" rx="18" fill="#2563EB"/>
  <rect x="176" y="454" width="180" height="16" rx="8" fill="#F8FAFC" fill-opacity="0.8"/>
  <rect x="176" y="488" width="160" height="12" rx="6" fill="#94A3B8"/>
  <rect x="620" y="180" width="420" height="180" rx="24" fill="#0B1122" stroke="#60A5FA" stroke-opacity="0.25"/>
  <rect x="662" y="226" width="210" height="16" rx="8" fill="#F8FAFC" fill-opacity="0.8"/>
  <rect x="662" y="262" width="170" height="12" rx="6" fill="#94A3B8"/>
  <rect x="662" y="292" width="154" height="12" rx="6" fill="#94A3B8"/>
  <rect x="620" y="392" width="420" height="150" rx="24" fill="#0B1122" stroke="#60A5FA" stroke-opacity="0.25"/>
  <circle cx="780" cy="467" r="54" fill="#38BDF8" fill-opacity="0.15"/>
  <path d="M780 430V504" stroke="#38BDF8" stroke-width="14" stroke-linecap="round"/>
  <path d="M744 466H816" stroke="#38BDF8" stroke-width="14" stroke-linecap="round"/>
  <defs>
    <linearGradient id="bg" x1="90" y1="110" x2="1110" y2="640" gradientUnits="userSpaceOnUse">
      <stop stop-color="#111827"/>
      <stop offset="1" stop-color="#020617"/>
    </linearGradient>
  </defs>
</svg>
