<svg width="1200" height="750" viewBox="0 0 1200 750" fill="none" xmlns="http://www.w3.org/2000/svg">
  <rect width="1200" height="750" rx="36" fill="#07121F"/>
  <rect x="70" y="80" width="1060" height="590" rx="28" fill="url(#bg)"/>
  <rect x="120" y="140" width="420" height="260" rx="22" fill="#0F172A" stroke="#38BDF8" stroke-opacity="0.35"/>
  <rect x="150" y="176" width="180" height="16" rx="8" fill="#38BDF8" fill-opacity="0.8"/>
  <rect x="150" y="212" width="220" height="12" rx="6" fill="#E2E8F0" fill-opacity="0.75"/>
  <rect x="150" y="236" width="160" height="12" rx="6" fill="#E2E8F0" fill-opacity="0.55"/>
  <rect x="150" y="300" width="200" height="56" rx="14" fill="#2563EB"/>
  <rect x="570" y="140" width="500" height="360" rx="24" fill="#0B1220" stroke="#60A5FA" stroke-opacity="0.3"/>
  <rect x="610" y="182" width="300" height="16" rx="8" fill="#F8FAFC" fill-opacity="0.8"/>
  <rect x="610" y="220" width="230" height="12" rx="6" fill="#94A3B8"/>
  <circle cx="904" cy="262" r="102" fill="url(#ring)"/>
  <path d="M850 262H958" stroke="#F8FAFC" stroke-width="16" stroke-linecap="round"/>
  <path d="M904 218V306" stroke="#F8FAFC" stroke-width="16" stroke-linecap="round"/>
  <rect x="610" y="394" width="180" height="56" rx="14" fill="#0EA5E9"/>
  <rect x="806" y="394" width="140" height="56" rx="14" fill="#1D4ED8"/>
  <rect x="198" y="470" width="802" height="130" rx="24" fill="#0B1220" stroke="#38BDF8" stroke-opacity="0.18"/>
  <rect x="232" y="506" width="168" height="16" rx="8" fill="#F8FAFC" fill-opacity="0.75"/>
  <rect x="232" y="540" width="140" height="12" rx="6" fill="#94A3B8"/>
  <rect x="446" y="506" width="190" height="16" rx="8" fill="#38BDF8" fill-opacity="0.7"/>
  <rect x="446" y="540" width="150" height="12" rx="6" fill="#94A3B8"/>
  <rect x="676" y="506" width="180" height="16" rx="8" fill="#F8FAFC" fill-opacity="0.75"/>
  <rect x="676" y="540" width="150" height="12" rx="6" fill="#94A3B8"/>
  <defs>
    <linearGradient id="bg" x1="120" y1="80" x2="1080" y2="670" gradientUnits="userSpaceOnUse">
      <stop stop-color="#10233F"/>
      <stop offset="1" stop-color="#020617"/>
    </linearGradient>
    <linearGradient id="ring" x1="802" y1="160" x2="1006" y2="364" gradientUnits="userSpaceOnUse">
      <stop stop-color="#38BDF8"/>
      <stop offset="1" stop-color="#2563EB"/>
    </linearGradient>
  </defs>
</svg>
